<?xml version="1.0" encoding="utf-8"?>
<!-- Generator: Adobe Illustrator 25.4.1, SVG Export Plug-In . SVG Version: 6.00 Build 0)  -->
<svg version="1.1" id="Capa_1" xmlns="http://www.w3.org/2000/svg" xmlns:xlink="http://www.w3.org/1999/xlink" x="0px" y="0px"
	 viewBox="0 0 561.73 132.89" style="enable-background:new 0 0 561.73 132.89;" xml:space="preserve">
<style type="text/css">
	.st0{fill:#F7F9F9;}
	.st1{fill:#FFFFFF;}
	.st2{fill:#FFA500;}
	.st3{fill:#007862;}
	.st4{fill:#FF0000;}
</style>
<g>
	<g>
		<path class="st0" d="M6.8,117.84c-1.14,0.28-1.85,1.42-1.58,2.57c0.27,1.15,1.42,1.85,2.57,1.58
			c34.81-8.24,70.68-12.42,106.61-12.42c35.94,0,71.81,4.18,106.63,12.42c1.14,0.27,2.29-0.43,2.56-1.58
			c0.27-1.15-0.44-2.29-1.59-2.57c-35.14-8.31-71.33-12.53-107.6-12.53C78.15,105.32,41.93,109.53,6.8,117.84z"/>
		<g>
			<path class="st1" d="M267.53,49.96h0.86c2.89,0,3.76,1.34,3.76,3.11c0,2.29-1.17,3.15-4.27,3.15h-0.35V49.96z M253.3,43.49v32.13
				h22.42c7.5,0,11.01-3.92,11.01-8.88c0-2.76-1-5.21-5.06-7.37c3.25-1.85,4.19-4.27,4.19-6.9c0-3.7-2.06-8.97-12.46-8.97H253.3z
				 M267.53,61.6h0.99c2.97,0,3.97,1.51,3.97,3.63c0,2.42-1.24,3.32-4.52,3.32h-0.44V61.6z"/>
			<path class="st1" d="M319.46,75.62h-12.47v-4.44h-0.08c-2.68,3.37-5.13,4.66-8.67,4.66c-4.75,0-8.84-2.76-8.84-8.97V50.27h12.29
				v13.67c0,2.12,0.56,3.46,2.38,3.46c1.03,0,1.89-0.52,2.37-1.34V50.27h13.02V75.62z"/>
			<path class="st1" d="M336.1,60.14c-0.09-2.38,1.26-4.01,2.97-4.01c1.85,0,3.07,1.55,3.15,4.01H336.1z M350.17,65.97
				c-1.61,1.73-4.23,2.76-7.03,2.76c-2.94,0-5.35-1.59-6.26-4.14h13.29c0.34-9.44-5.73-14.84-13.67-14.84
				c-7.85,0-13.29,5.3-13.29,12.89c0,8.07,5.82,13.37,14.66,13.37c5.27,0,9.32-1.71,12.3-5.6V65.97z"/>
			<path class="st1" d="M366.73,53.46c2.32-2.37,4.7-3.4,7.85-3.4c4.31,0,9.19,1.81,9.19,9.83v15.74h-12.3V60.83
				c0-2.02-0.78-3.15-2.42-3.15c-0.68,0-1.68,0.35-2.32,0.82v17.11H353.7V50.27h13.03V53.46z"/>
			<path class="st1" d="M398.12,62.64c0-1.72,1.17-2.88,2.85-2.88c1.73,0,2.9,1.17,2.9,2.88c0,1.72-1.17,2.89-2.9,2.89
				C399.29,65.53,398.12,64.36,398.12,62.64z M387.12,62.9c0,8.07,6.05,13.1,13.84,13.1c8.24,0,13.89-5.34,13.89-13.1
				c0-7.81-5.65-13.16-13.89-13.16C392.77,49.75,387.12,55.09,387.12,62.9z"/>
			<path class="st1" d="M419.21,66.05c1.72,2.33,4.49,3.84,6.99,3.84c1.51,0,2.51-0.73,2.51-1.81c0-3.06-5.87-1.94-9.45-5.51
				c-1.2-1.21-2.03-2.94-2.03-4.83c0-5.04,4.53-7.98,12.38-7.98c4.28,0,8.23,0.73,11.3,2.16l-3.11,6.47
				c-1.9-1.73-4.09-2.76-5.95-2.76c-1.25,0-2.11,0.6-2.11,1.51c0,3.11,6.3,1.77,9.97,5.44c1.29,1.29,1.93,3.06,1.93,5
				c0,5.73-5.34,8.44-11.38,8.44c-4.22,0-9.62-1.08-13.93-2.84L419.21,66.05z"/>
			<path class="st1" d="M461.87,55.78h0.9c3.06,0,4.31,1.51,4.31,3.72c0,2.71-1.46,3.83-4.87,3.83h-0.34V55.78z M447.64,43.49v32.13
				h15.47c14.06,0,18.21-9.48,18.21-15.99c0-6.68-4.32-16.13-17.85-16.13H447.64z"/>
			<path class="st1" d="M490.07,42.98h8.66l-7.21,5.65h-4.34L490.07,42.98z M497.7,75.62h-13.02V50.27
				c1.51,0.91,4.14,1.47,6.69,1.47c2.41,0,4.74-0.52,6.33-1.47V75.62z"/>
			<path class="st1" d="M514.87,70.01c-0.57,0.48-1.26,0.7-2.03,0.7c-1.56,0-2.72-1.05-2.72-2.41c0-1.34,1.03-2.2,2.63-2.2
				c0.69,0,1.17,0.09,2.12,0.4V70.01z M502.4,60.7c2.68-1.43,4.79-2.03,7.33-2.03c3.11,0,5.14,1.3,5.14,3.76
				c-1.39-0.39-2.98-0.6-4.46-0.6c-5.17,0-8.66,3.02-8.66,7.37c0,3.84,2.88,6.64,6.78,6.64c2.19,0,4.69-0.87,6.34-2.12v1.9h13.02
				V61.6c0-8.49-4.92-11.55-12.99-11.55c-4.92,0-8.45,0.86-12.51,3.01V60.7z"/>
			<path class="st1" d="M532.98,66.05c1.73,2.33,4.49,3.84,6.99,3.84c1.51,0,2.5-0.73,2.5-1.81c0-3.06-5.87-1.94-9.45-5.51
				c-1.2-1.21-2.03-2.94-2.03-4.83c0-5.04,4.53-7.98,12.38-7.98c4.27,0,8.24,0.73,11.3,2.16l-3.11,6.47
				c-1.89-1.73-4.09-2.76-5.94-2.76c-1.26,0-2.12,0.6-2.12,1.51c0,3.11,6.3,1.77,9.96,5.44c1.3,1.29,1.94,3.06,1.94,5
				c0,5.73-5.35,8.44-11.39,8.44c-4.23,0-9.62-1.08-13.93-2.84L532.98,66.05z"/>
			<path class="st1" d="M262.02,91.01c-1.04-0.67-1.94-0.9-2.99-0.9c-1.81,0-2.99,1.02-2.99,2.56c0,2.74,5.76,3.89,5.76,8.29
				c0,2.12-1.64,4.49-5.03,4.49c-1.11,0-2.64-0.36-4.11-1.23l0.35-2.5c1.79,1.25,2.96,1.62,3.99,1.62c0.87,0,2.52-0.59,2.52-2.19
				c0-3.02-5.75-4.06-5.75-8.52c0-2.8,2.68-4.64,5.47-4.64c0.7,0,1.96,0.18,3.11,0.67L262.02,91.01z"/>
			<path class="st1" d="M285.47,105.23h-2.09l0.25-1.84l-0.06-0.05c-0.88,0.92-2.17,2.07-3.69,2.07c-1.24,0-3.06-0.91-2.64-3.99
				l1.05-7.38h2.12l-1.04,7.38c-0.27,1.99,0.62,2.37,1.2,2.37c0.82,0,1.84-0.64,3.36-2.47l1.02-7.28h2.12L285.47,105.23z"/>
			<path class="st1" d="M305.84,95.61c0.61-0.27,0.86-0.32,1.4-0.32c1.62,0,3.19,1.1,3.19,3.62c0,2.19-1.44,4.88-4.71,4.88h-1.02
				L305.84,95.61z M306.46,91.2h-2.12l-0.56,4.11c-1.15,0.9-2.17,2.61-2.17,3.39c0,0.11,0.02,0.15,0.1,0.15
				c0.2,0,0.75-1.22,1.87-2.05l-2,14.16h2.12l0.75-5.39h1.39c4.87,0,6.76-3.85,6.76-6.67c0-2.99-1.99-5.21-4.63-5.21
				c-0.34,0-0.67,0.03-0.97,0.08c-0.29,0.05-0.59,0.15-0.92,0.27L306.46,91.2z"/>
			<path class="st1" d="M330.33,97.95c0.57-1.69,1.42-2.51,2.66-2.51c1.4,0,2.02,1.09,2.02,2.51H330.33z M336.51,102.32
				c-1.39,1.02-2.59,1.51-3.64,1.51c-1.75,0-3.38-1.42-2.86-4.41h6.98c0.47-3.42-1.4-5.74-3.88-5.74c-2.99,0-5.31,2.82-5.31,6.48
				c0,3.26,1.84,5.4,4.68,5.4c1.35,0,2.61-0.42,3.74-1.24L336.51,102.32z"/>
			<path class="st1" d="M355.42,96.17l0.05,0.05c1.32-1.89,1.89-2.34,2.97-2.34c0.32,0,0.55,0.03,0.92,0.17v2.39
				c-0.49-0.27-0.85-0.38-1.3-0.38c-1.09,0-1.84,0.68-3.01,2.87l-0.88,6.3h-2.11l1.57-11.19h2.12L355.42,96.17z"/>
			<path class="st1" d="M376.27,95.99l0.05,0.05c1.37-1.55,2.62-2.16,3.87-2.16c0.91,0,2.24,0.48,2.54,2.52
				c1.62-2,3.09-2.52,4.19-2.52c1.61,0,2.98,1.22,2.56,4.12l-1.02,7.25h-2.12l1.04-7.35c0.23-1.47-0.22-2.34-1.14-2.34
				c-0.75,0-1.96,0.55-3.51,2.6l-1.02,7.09h-2.12l1-7.08c0.24-1.61-0.05-2.61-1.24-2.61c-0.83,0-2.2,1.02-3.37,2.6l-1,7.09h-2.12
				l1.6-11.19h2.12L376.27,95.99z"/>
			<path class="st1" d="M407.61,97.95c0.56-1.69,1.42-2.51,2.66-2.51c1.39,0,2.01,1.09,2.01,2.51H407.61z M413.78,102.32
				c-1.39,1.02-2.59,1.51-3.63,1.51c-1.75,0-3.39-1.42-2.87-4.41h6.97c0.48-3.42-1.39-5.74-3.88-5.74c-2.99,0-5.31,2.82-5.31,6.48
				c0,3.26,1.84,5.4,4.69,5.4c1.34,0,2.61-0.42,3.73-1.24L413.78,102.32z"/>
			<path class="st1" d="M432.7,96.17l0.05,0.05c1.32-1.89,1.9-2.34,2.96-2.34c0.32,0,0.54,0.03,0.92,0.17v2.39
				c-0.5-0.27-0.86-0.38-1.3-0.38c-1.1,0-1.84,0.68-3.02,2.87l-0.88,6.3h-2.11l1.57-11.19h2.12L432.7,96.17z"/>
			<path class="st1" d="M458.23,104.79c-1.07,0.57-1.96,0.79-3.11,0.79c-3.01,0-4.94-2.01-4.94-5.16c0-3.63,2.85-6.73,7.26-6.73
				c0.57,0,1.22,0.08,1.91,0.21l-0.28,1.87c-0.57-0.13-1.1-0.17-1.62-0.17c-3.11,0-5.11,2.33-5.11,4.7c0,2.11,1.18,3.38,3.07,3.38
				c1.12,0,2.02-0.32,3.06-0.95L458.23,104.79z"/>
			<path class="st1" d="M480.43,102c-0.65,0.86-1.77,1.71-2.62,1.71c-1.29,0-2.23-1.28-2.23-3.06c0-1.5,0.94-5.51,5.78-5.12
				L480.43,102z M483.66,94.04c-0.62-0.2-1.84-0.35-2.64-0.35c-5.46,0-7.6,3.77-7.6,7.32c0,2.45,1.62,4.45,3.69,4.45
				c1.07,0,2.14-0.63,3.01-1.57l0.05,0.04l-0.19,1.3h2.11L483.66,94.04z"/>
			<path class="st1" d="M505.24,103.79c-0.35,0.05-0.65,0.05-0.97,0.05c-2.39,0-3.71-1.27-3.71-3.48c0-2.4,1.82-4.89,5.28-4.89h0.55
				L505.24,103.79z M509.52,88.24h-2.11l-0.77,5.45h-0.91c-5.33,0-7.34,4.32-7.34,6.71c0,3.33,2.12,5.18,5.88,5.18
				c1.09,0,1.96-0.09,2.86-0.35L509.52,88.24z"/>
			<path class="st1" d="M525.74,100.81c0-2.85,1.37-5.44,3.19-5.44c1.22,0,1.99,1.22,1.99,3.08c0,3.1-1.43,5.31-3.21,5.31
				C526.61,103.76,525.74,102.59,525.74,100.81z M533.09,98.59c0-2.94-1.62-4.89-4.16-4.89c-3.04,0-5.36,2.97-5.36,6.88
				c0,3.14,1.57,5.01,4.2,5.01C530.73,105.58,533.09,102.77,533.09,98.59z"/>
			<path class="st1" d="M555.26,97.09c-1.28-0.98-2.45-1.48-3.37-1.48c-0.86,0-1.51,0.53-1.51,1.18c0,1.59,4.45,2.36,4.45,5.45
				c0,2.02-1.49,3.34-3.45,3.34c-1.4,0-2.3-0.35-3.89-1.47l0.37-2.04c1.47,1.17,2.54,1.67,3.44,1.67c0.85,0,1.45-0.52,1.45-1.24
				c0-1.87-4.39-2.54-4.39-5.58c0-1.91,1.37-3.22,3.51-3.22c1.17,0,2.34,0.46,3.39,1.18V97.09z"/>
			<rect x="252.95" y="81.53" class="st2" width="302.4" height="2.95"/>
		</g>
		<g>
			<path class="st2" d="M187.76,111.1c14.82-4.61,34.39-10.71,34.39-10.71c0.74-0.22,1.22-0.9,1.22-1.65c0-0.1-0.01-0.22-0.03-0.32
				c-0.16-0.86-0.95-1.47-1.83-1.4c0,0-39.41,2.82-50.23,3.59c9.23-5.7,42.86-26.47,42.86-26.47c0.52-0.32,0.82-0.88,0.82-1.47
				c0-0.25-0.05-0.49-0.16-0.73c-0.38-0.8-1.29-1.19-2.11-0.91c0,0-37.49,12.53-47.77,15.97c7.53-7.81,34.93-36.29,34.93-36.29
				c0.32-0.34,0.48-0.77,0.48-1.2c0-0.39-0.13-0.78-0.39-1.1c-0.56-0.68-1.54-0.83-2.28-0.35c0,0-33.18,21.46-42.29,27.35
				c5.34-9.44,24.81-43.84,24.81-43.84c0.15-0.27,0.22-0.56,0.22-0.85c0-0.54-0.25-1.06-0.71-1.4c-0.71-0.52-1.7-0.41-2.29,0.23
				c0,0-26.81,29.04-34.16,37.01c2.82-10.47,13.11-48.62,13.11-48.62c0.05-0.15,0.06-0.3,0.06-0.46c0-0.7-0.42-1.33-1.1-1.6
				c-0.81-0.33-1.74,0.02-2.16,0.79c0,0-18.73,34.79-23.88,44.34c0.13-10.85,0.61-50.38,0.61-50.38c0-0.88-0.65-1.61-1.51-1.72
				c-0.87-0.11-1.69,0.45-1.9,1.3c0,0-9.5,38.36-12.1,48.89c-2.58-10.54-11.93-48.92-11.93-48.92c-0.21-0.86-1.02-1.42-1.89-1.31
				c-0.87,0.1-1.52,0.84-1.52,1.71c0,0,0.34,39.54,0.43,50.38c-5.1-9.57-23.71-44.43-23.71-44.43c-0.41-0.77-1.34-1.12-2.16-0.8
				c-0.68,0.27-1.1,0.92-1.1,1.62c0,0.14,0.02,0.29,0.06,0.44c0,0,10.16,38.18,12.94,48.68c-7.33-8-34.03-37.14-34.03-37.14
				c-0.59-0.65-1.57-0.75-2.3-0.24c-0.46,0.35-0.72,0.87-0.72,1.41c0,0.29,0.08,0.58,0.23,0.85c0,0,19.34,34.46,24.64,43.92
				c-9.08-5.92-42.19-27.51-42.19-27.51c-0.74-0.48-1.72-0.33-2.28,0.35c-0.26,0.32-0.4,0.71-0.4,1.1c0,0.44,0.16,0.86,0.48,1.2
				c0,0,27.3,28.58,34.79,36.42c-10.28-3.48-47.7-16.15-47.7-16.15c-0.83-0.29-1.75,0.11-2.12,0.9c-0.12,0.24-0.17,0.49-0.17,0.74
				c0,0.58,0.28,1.14,0.82,1.47c0,0,33.55,20.89,42.75,26.62c-10.81-0.82-50.23-3.78-50.23-3.78c-0.87-0.06-1.66,0.54-1.83,1.4
				c-0.02,0.12-0.03,0.22-0.03,0.33c0,0.74,0.48,1.42,1.21,1.64c0,0,20.13,6.36,35.01,11.04c24.09-3.79,48.52-5.72,72.97-5.72
				C138.98,105.32,163.54,107.26,187.76,111.1z"/>
		</g>
		<path class="st3" d="M104.9,69.88c-0.01,0-0.02-0.01-0.03-0.01c-0.38-0.04-0.77,0.08-1.06,0.34l-16.34,14.9
			c-0.34,0.32-0.5,0.8-0.4,1.27c0.1,0.46,0.44,0.84,0.9,0.98l4.91,1.54c0.7,0.21,1.45-0.18,1.66-0.88c0.04-0.13,0.06-0.26,0.06-0.4
			c0-0.57-0.36-1.09-0.92-1.26c0,0-1.36-0.43-2.69-0.85c2.54-2.3,11.75-10.71,13.49-12.3c1.56,2.28,16.53,24.11,16.53,24.11
			c0.3,0.44,0.84,0.66,1.37,0.55l21.43-4.41c0.42-0.1,0.78-0.39,0.96-0.81c0.16-0.4,0.12-0.87-0.13-1.24L131.3,71.33
			c-0.24-0.36-0.63-0.57-1.07-0.59l-24.99-0.96C105.12,69.77,105.02,69.86,104.9,69.88z M107.23,72.51
			c3.4,0.13,21.04,0.82,22.22,0.86c0.65,0.97,10.11,15.19,11.89,17.88c-3.06,0.63-17.19,3.55-18.64,3.84
			C121.84,93.83,109.55,75.9,107.23,72.51z"/>
		<path class="st1" d="M90.99,85.51c0.26-0.24,0.61-0.56,1.01-0.92l0.08,1.27C91.74,85.75,91.35,85.64,90.99,85.51z M94.52,82.29
			c3.71-3.38,8.73-7.95,9.96-9.08c0.94,1.36,6.65,9.7,11.11,16.19l-2.94,24.18c-3.76-1.6-15.38-6.56-16.56-7.06
			C95.99,105.06,94.64,84.05,94.52,82.29z M132.65,106.53c-0.93,0.37-12.9,5.14-17.3,6.91l2.51-20.7c1.86,2.7,3.16,4.59,3.16,4.59
			c0.3,0.44,0.84,0.66,1.37,0.55l13.63-2.81C134.98,98.57,132.9,105.68,132.65,106.53z M122.71,95.09
			c-0.86-1.26-13.16-19.19-15.48-22.58c3.4,0.13,21.04,0.82,22.22,0.86c0.65,0.97,10.11,15.19,11.89,17.88
			C138.28,91.87,124.15,94.79,122.71,95.09z"/>
		<path class="st3" d="M115.59,89.3l-3.17,26.04c-0.09,0.74,0.44,1.39,1.17,1.48c0.72,0.1,1.39-0.42,1.48-1.16l3.17-26.05
			c0.09-0.73-0.43-1.39-1.17-1.48C116.35,88.04,115.69,88.57,115.59,89.3z"/>
		<path class="st2" d="M101.9,94.95c0.09-0.28,0.34-0.97,0.88-1.28c0.39-0.24,0.95-0.26,1.65-0.05c2.47,0.73,2.51,3.23,2.51,3.51
			v14.03c-1.75-0.75-3.61-1.53-5.3-2.26C101.69,105.91,101.9,95.26,101.9,94.95z"/>
		<path class="st4" d="M107.23,72.51c3.4,0.13,21.04,0.82,22.22,0.86c0.65,0.97,10.11,15.19,11.89,17.88
			c-3.06,0.63-17.19,3.55-18.64,3.84C121.84,93.83,109.55,75.9,107.23,72.51z"/>
		<path class="st3" d="M93.09,80.92c-0.74,0.04-1.29,0.68-1.23,1.42l1.63,25.18c0.03,0.51,0.34,0.94,0.8,1.14l18.93,8.07
			c0.32,0.14,0.69,0.14,1.02,0.01l19.99-7.98c0.38-0.15,0.67-0.46,0.79-0.85l4.14-14.03c0.21-0.71-0.21-1.45-0.91-1.66
			c-0.7-0.21-1.43,0.2-1.65,0.91c0,0-3.62,12.28-3.95,13.41c-1.11,0.43-17.94,7.16-18.88,7.53c-0.92-0.4-16.32-6.95-17.68-7.54
			c-0.09-1.53-1.58-24.36-1.58-24.36C94.46,81.43,93.83,80.87,93.09,80.92z"/>
		<path class="st3" d="M101.38,91.39c-1.66,1-2.07,2.89-2.11,3.1c-0.01,0.08-0.03,0.16-0.03,0.23l-0.28,14.9
			c-0.02,0.73,0.56,1.34,1.3,1.36c0.74,0.01,1.35-0.58,1.35-1.31c0,0,0.28-14.36,0.29-14.72c0.07-0.28,0.33-0.97,0.87-1.28
			c0.4-0.24,0.96-0.26,1.65-0.05c2.47,0.73,2.5,3.23,2.5,3.51v15.88c0,0.73,0.6,1.33,1.34,1.33c0.73,0,1.33-0.59,1.33-1.33V97.14
			c0.04-1.61-0.82-5.01-4.42-6.08C103.37,90.52,102.11,90.95,101.38,91.39z"/>
	</g>
</g>
</svg>
